<svg width="160" height="160" viewBox="0 0 160 160" fill="none" xmlns="http://www.w3.org/2000/svg">
    <rect width="160" height="160" fill="white"/>
    <path d="M5.61458 78.362C3.19103 75.3462 3.49586 72.6542 6.5291 70.2858L74.1024 17.626C76.764 15.721 79.3442 15.4899 81.843 16.9326L82.0773 17.0679C84.5474 18.6504 85.5202 20.9329 84.9957 23.9153L73.6461 109.036C73.1117 112.847 70.9718 114.479 67.2264 113.934C63.4419 113.365 61.8138 111.226 62.3421 107.516L64.8909 88.4936L28.4041 67.4279L13.4978 79.3153C10.5262 81.667 7.89843 81.3493 5.61458 78.362ZM37.9596 59.8039L66.54 76.3048L72.4822 32.3345L37.9596 59.8039Z" fill="black"/>
    <path d="M122.954 138.74C115.969 142.824 109.749 144.51 104.294 143.799C98.8558 143.023 93.9674 139.759 89.6286 134.006C88.6339 132.583 88.2959 131.263 88.6146 130.048C88.9499 128.768 89.8444 127.703 91.298 126.853C92.7516 126.003 94.0341 125.741 95.1455 126.067C96.2972 126.368 97.399 127.187 98.4507 128.523C101.013 131.793 103.725 133.512 106.587 133.681C109.465 133.786 113.186 132.504 117.749 129.837L135.192 119.638C140.602 116.475 143.718 113.325 144.54 110.19C145.379 106.991 144.252 102.746 141.159 97.4568C138.019 92.0865 134.829 88.994 131.59 88.1791C128.367 87.3003 124.091 88.419 118.761 91.5352L103.256 100.601C95.7859 104.968 89.2036 106.406 83.5089 104.913C77.8546 103.397 72.8555 98.9242 68.5117 91.4947C64.1678 84.0652 62.7136 77.5469 64.1489 71.9398C65.6246 66.3091 70.0974 61.31 77.5673 56.9426L92.83 48.0188C99.3711 44.1943 105.213 42.6482 110.354 43.3804C115.513 44.0485 120.144 47.0571 124.246 52.4062C125.281 53.8057 125.631 55.1453 125.296 56.4251C124.977 57.6408 124.071 58.6854 122.577 59.5589C121.164 60.3852 119.881 60.6474 118.729 60.3455C117.554 60.0033 116.472 59.1728 115.485 57.854C113.182 55.0282 110.708 53.5763 108.062 53.4981C105.456 53.3964 102.114 54.5377 98.0355 56.9221L82.7728 65.8458C77.766 68.7732 74.8971 71.6968 74.166 74.6165C73.4518 77.4722 74.5347 81.3631 77.4149 86.2892C80.2951 91.2152 83.1984 94.0959 86.125 94.9313C89.0683 95.7027 93.0434 94.6247 98.0502 91.6974L113.555 82.632C121.388 78.052 128.28 76.5419 134.231 78.1014C140.182 79.661 145.459 84.3776 150.062 92.2512C154.642 100.084 156.141 106.956 154.557 112.866C152.951 118.736 148.231 123.961 140.397 128.541L122.954 138.74Z" fill="black"/>
</svg>
